# xmcd
#
# Track frame offsets: 
#        150
#        2624
#        42471
#        76574
#        146768
#        162831
#        196944
#
# Disc length: 2849 seconds
#
# Revision: 0
# Processed by: cddbd v1.5.2PL0 Copyright (c) Steve Scherf et al.
# Submitted via: ExactAudioCopy v0.95a4
#
DISCID=4c0b1f07
DTITLE=Allman Brothers Band - Live Chicago 01-09-2009 (Tour 2009) CD-2
DYEAR=2009
DGENRE=Blues
TTITLE0=Announcements
TTITLE1=The Sky Is Crying
TTITLE2=You Don't Love Me
TTITLE3=In Memory Of Elizabeth Reed
TTITLE4=Crowd noise
TTITLE5=Melissa
TTITLE6=Trouble No More
EXTD=
EXTT0=
EXTT1=
EXTT2=
EXTT3=
EXTT4=
EXTT5=
EXTT6=
PLAYORDER=
